<?xml version="1.0" standalone="no"?>
<!DOCTYPE svg PUBLIC "-//W3C//DTD SVG 20010904//EN"
 "http://www.w3.org/TR/2001/REC-SVG-20010904/DTD/svg10.dtd">
<svg version="1.0" xmlns="http://www.w3.org/2000/svg"
 width="1145.000000pt" height="1145.000000pt" viewBox="0 0 1145.000000 1145.000000"
 preserveAspectRatio="xMidYMid meet">
<metadata>
Created by potrace 1.16, written by Peter Selinger 2001-2019
</metadata>
<g transform="translate(0.000000,1145.000000) scale(0.100000,-0.100000)"
fill="#000000" stroke="none">
<path d="M1825 6769 c-152 -20 -285 -71 -390 -150 -87 -66 -139 -142 -181
-264 -23 -68 -26 -96 -26 -187 2 -219 68 -352 227 -453 82 -53 154 -77 405
-135 496 -115 570 -155 570 -308 0 -97 -71 -182 -182 -217 -81 -26 -305 -32
-387 -10 -154 40 -241 125 -260 254 l-6 46 -199 3 -199 2 6 -77 c8 -94 23
-147 70 -239 85 -169 243 -275 487 -327 76 -16 133 -20 280 -20 169 -1 193 2
284 26 343 92 519 320 503 647 -10 195 -68 299 -217 392 -90 57 -173 84 -517
169 -437 108 -465 123 -471 253 -6 115 33 173 154 228 44 20 64 23 189 23 154
0 205 -12 280 -63 59 -41 99 -110 119 -204 l6 -28 195 0 c106 0 196 4 199 8 8
14 -13 139 -34 203 -105 311 -469 483 -905 428z"/>
<path d="M3124 6715 c-2 -5 -3 -453 -2 -995 l3 -985 190 0 190 0 5 480 c5 479
5 480 29 533 52 115 167 179 302 170 110 -8 183 -63 209 -157 6 -22 10 -238
10 -519 0 -265 3 -489 6 -497 5 -13 37 -15 195 -15 l189 0 0 558 c0 325 -5
575 -10 599 -15 65 -58 148 -103 199 -82 93 -203 147 -356 160 -174 15 -370
-67 -443 -184 l-23 -37 -5 348 -5 348 -189 2 c-118 1 -190 -2 -192 -8z"/>
<path d="M7503 6638 c-39 -40 -69 -79 -66 -85 2 -7 36 -40 75 -73 81 -70 71
-72 160 34 l50 59 -68 68 c-38 38 -71 69 -74 69 -3 0 -37 -33 -77 -72z"/>
<path d="M7512 6260 c-140 -63 -268 -314 -233 -455 18 -71 72 -148 135 -192
30 -21 55 -42 56 -47 0 -4 -14 -25 -30 -46 -42 -53 -78 -135 -95 -217 -19 -86
-18 -142 0 -221 51 -217 221 -341 467 -342 96 0 173 26 350 118 173 90 171 88
156 136 -12 37 -13 38 -53 33 -22 -3 -83 -15 -135 -27 -115 -26 -355 -38 -445
-21 -89 16 -181 65 -211 111 -54 82 -51 172 9 262 58 86 133 132 399 248 112
48 162 83 180 125 23 53 12 165 -16 165 -22 0 -214 -79 -295 -121 -40 -22 -84
-39 -98 -39 -35 0 -117 45 -159 86 -41 42 -74 111 -74 158 0 31 4 35 58 56
103 41 213 39 369 -6 18 -5 25 1 42 34 l21 41 -33 33 c-130 135 -254 179 -365
128z"/>
<path d="M5230 6235 c-208 -34 -335 -116 -405 -259 -26 -55 -53 -150 -57 -206
l-3 -35 184 0 184 0 18 55 c36 110 132 160 279 146 73 -7 158 -44 178 -76 22
-36 26 -112 8 -147 -21 -42 -65 -55 -314 -93 -289 -44 -382 -79 -476 -179 -72
-78 -98 -144 -104 -270 -8 -165 24 -263 115 -354 175 -175 532 -161 743 30
l59 54 6 -38 c4 -21 13 -59 22 -86 l15 -47 206 2 207 3 3 27 c2 19 -3 31 -22
43 -13 9 -33 35 -43 58 -16 38 -18 87 -23 557 l-5 515 -29 58 c-57 111 -164
187 -324 228 -103 26 -307 33 -422 14z m400 -907 c0 -98 -3 -120 -24 -163 -47
-100 -142 -166 -268 -187 -142 -23 -228 43 -228 175 0 70 10 96 52 139 39 38
104 62 233 83 106 17 141 27 181 48 53 29 54 27 54 -95z"/>
<path d="M10153 6239 c-62 -12 -124 -41 -167 -80 -42 -36 -109 -123 -128 -164
-6 -14 -15 -25 -20 -25 -4 0 -8 54 -8 120 l0 120 -185 0 -185 0 0 -740 0 -740
194 0 195 0 3 448 c3 446 3 447 27 499 27 61 84 117 150 146 36 16 73 22 169
25 l122 4 0 193 c0 167 -2 194 -16 199 -21 8 -99 6 -151 -5z"/>
</g>
</svg>
